<svg width="48" height="49" viewBox="0 0 48 49" fill="none" xmlns="http://www.w3.org/2000/svg">
<circle cx="24" cy="24.125" r="24" fill="#FDE293"/>
<path d="M23.5 34.125C22.1167 34.125 20.9375 33.6375 19.9625 32.6625C18.9875 31.6875 18.5 30.5083 18.5 29.125V20.125C17.95 20.125 17.4792 19.9292 17.0875 19.5375C16.6958 19.1458 16.5 18.675 16.5 18.125V16.125C16.5 15.575 16.6958 15.1042 17.0875 14.7125C17.4792 14.3208 17.95 14.125 18.5 14.125H28.5C29.05 14.125 29.5208 14.3208 29.9125 14.7125C30.3042 15.1042 30.5 15.575 30.5 16.125V18.125C30.5 18.675 30.3042 19.1458 29.9125 19.5375C29.5208 19.9292 29.05 20.125 28.5 20.125V29.125C28.5 30.5083 28.0125 31.6875 27.0375 32.6625C26.0625 33.6375 24.8833 34.125 23.5 34.125ZM18 18.625H29V15.625H18V18.625ZM23.5 32.625C24.35 32.625 25.0875 32.3667 25.7125 31.85C26.3375 31.3333 26.7417 30.675 26.925 29.875H23.5V28.375H27V26.875H23.5V25.375H27V23.875H23.5V22.375H27V20.125H20V29.125C20 30.0972 20.3403 30.9236 21.0208 31.6042C21.7014 32.2847 22.5278 32.625 23.5 32.625Z" fill="#FA7B17"/>
</svg>
