<svg width="48" height="49" viewBox="0 0 48 49" fill="none" xmlns="http://www.w3.org/2000/svg">
<circle cx="24" cy="24.125" r="24" fill="#D2E3FC"/>
<path d="M29.3996 32.125H18.2996V19.325L25.2496 12.125L26.2246 12.9C26.3246 12.9833 26.3996 13.1 26.4496 13.25C26.4996 13.4 26.5246 13.5833 26.5246 13.8V14.05L25.3996 19.325H32.8746C33.2746 19.325 33.6246 19.475 33.9246 19.775C34.2246 20.075 34.3746 20.425 34.3746 20.825V22.871C34.3746 22.9903 34.3871 23.1125 34.4121 23.2375C34.4371 23.3625 34.4246 23.4833 34.3746 23.6L31.2246 30.85C31.0766 31.2042 30.83 31.5052 30.4847 31.7531C30.1395 32.001 29.7778 32.125 29.3996 32.125ZM19.7996 30.625H29.7246L32.8746 23.15V20.825H23.5496L24.8746 14.6L19.7996 19.95V30.625ZM18.2996 19.325V20.825H14.9746V30.625H18.2996V32.125H13.4746V19.325H18.2996Z" fill="#1A73E8"/>
</svg>
