<svg width="48" height="49" viewBox="0 0 48 49" fill="none" xmlns="http://www.w3.org/2000/svg">
<circle cx="24" cy="24.125" r="24" fill="#F3E8FD"/>
<path d="M24 35.125C24 33.6033 23.7112 32.1733 23.1337 30.835C22.5562 29.4967 21.7725 28.3325 20.7825 27.3425C19.7925 26.3525 18.6283 25.5687 17.29 24.9912C15.9517 24.4137 14.5217 24.125 13 24.125C14.5217 24.125 15.9517 23.8362 17.29 23.2587C18.6283 22.6812 19.7925 21.8975 20.7825 20.9075C21.7725 19.9175 22.5562 18.7533 23.1337 17.415C23.7112 16.0767 24 14.6467 24 13.125C24 14.6467 24.2887 16.0767 24.8662 17.415C25.4437 18.7533 26.2275 19.9175 27.2175 20.9075C28.2075 21.8975 29.3717 22.6812 30.71 23.2587C32.0483 23.8362 33.4783 24.125 35 24.125C33.4783 24.125 32.0483 24.4137 30.71 24.9912C29.3717 25.5687 28.2075 26.3525 27.2175 27.3425C26.2275 28.3325 25.4437 29.4967 24.8662 30.835C24.2887 32.1733 24 33.6033 24 35.125Z" stroke="#7627BB" stroke-width="2"/>
</svg>
